<svg id="Layer_1" enable-background="new 0 0 512.196 512.196" height="512" viewBox="0 0 512.196 512.196" width="512" xmlns="http://www.w3.org/2000/svg"><g><g clip-rule="evenodd" fill-rule="evenodd"><path d="m232.192 154.197c-40.24-12.594-89.705 87.448-51.487 101.741 51.701 19.335 81.186 3.222 91.435 10.645.174 18.793 4.924 38.132-2.95 67.52-2.847 10.625 3.517 21.648 14.142 24.495s21.648-3.517 24.495-14.142c15.053-56.178 38.736-60.721 47.744-94.339 7.509-28.026-12.711-46.463-29.515-50.966-65.998-17.684-59.688-34.258-93.864-44.954z" fill="#ff9346"/><path d="m180.706 255.938c-38.219-14.293 11.247-114.335 51.487-101.741 34.176 10.696 27.865 27.27 93.863 44.954 16.804 4.503 37.024 22.94 29.515 50.966-9.008 33.618-32.691 38.16-47.744 94.339-2.847 10.625-13.869 16.989-24.495 14.142-10.625-2.847-16.989-13.869-14.142-24.495 7.875-29.388 3.124-48.727 2.95-67.52-10.248-7.423-39.733 8.689-91.434-10.645zm240.032-94.971c-8.979-15.551-23.555-25.851-39.715-29.828-7.717-34.235-45.645-56.121-79.14-45.692-23.797-25.788-67.59-25.781-91.379 0-15.984-4.634-33.76-3.003-49.31 5.975-15.551 8.978-25.851 23.555-29.828 39.715-34.233 7.717-56.122 45.645-45.692 79.139-12.005 11.526-19.48 27.734-19.48 45.691 0 17.956 7.474 34.165 19.479 45.689-4.634 15.984-3.002 33.76 5.976 49.311 8.979 15.551 23.555 25.85 39.715 29.828 3.978 16.16 14.279 30.739 29.83 39.716 15.551 8.979 33.325 10.611 49.308 5.976 11.526 12.005 27.735 19.48 45.691 19.48s34.166-7.474 45.69-19.479c15.984 4.634 33.759 3.003 49.31-5.976s25.851-23.556 29.828-39.715c34.233-7.717 56.122-45.645 45.691-79.138 12.006-11.526 19.48-27.735 19.48-45.691s-7.473-34.165-19.479-45.689c4.635-15.986 3.003-33.762-5.975-49.312z" fill="#ffc144"/><path d="m85.672 301.655c-12.005-11.524-19.479-27.733-19.479-45.689 0-17.957 7.475-34.166 19.48-45.691-10.434-33.505 11.469-71.425 45.692-79.139 3.977-16.16 14.278-30.737 29.828-39.715 15.551-8.978 33.326-10.61 49.31-5.975 23.797-25.788 67.59-25.78 91.379 0 33.507-10.432 71.426 11.468 79.14 45.692 16.16 3.977 30.736 14.277 39.715 29.828 8.978 15.551 10.61 33.326 5.976 49.311 12.006 11.524 19.479 27.733 19.479 45.689 0 17.957-7.475 34.166-19.48 45.691 10.434 33.504-11.469 71.424-45.691 79.138-3.977 16.159-14.278 30.736-29.828 39.715-15.551 8.978-33.326 10.61-49.31 5.976-11.524 12.005-27.733 19.479-45.69 19.479s-34.166-7.475-45.691-19.48c-15.983 4.635-33.757 3.003-49.308-5.976-15.551-8.978-25.852-23.556-29.83-39.716-16.16-3.977-30.736-14.277-39.715-29.828-8.979-15.55-10.611-33.325-5.977-49.31zm416.522-45.689c0-135.863-110.138-246.001-246.001-246.001-326.315 12.957-326.222 479.094.002 492.002 135.861 0 245.999-110.138 245.999-246.001z" fill="#faf7f6"/></g><g><path d="m437.213 74.946c-83.821-86.676-227.878-99.654-326.051-29.943-4.549 3.133-5.696 9.36-2.563 13.908 3.132 4.548 9.36 5.697 13.907 2.563 153.596-107.838 371.319 6.629 369.687 194.495.002 130.128-105.868 235.998-235.999 235.998-187.859 1.612-302.34-216.09-194.496-369.682 3.133-4.548 1.985-10.775-2.562-13.908-4.549-3.133-10.775-1.987-13.908 2.562-116.569 168.574 5.906 401.694 210.969 401.026 227.222-.211 341.54-276.207 181.016-437.019z"/><path d="m429.398 155.966c-9.086-15.736-23.254-27.255-40.302-32.901-5.647-17.049-17.167-31.218-32.903-40.303s-33.765-11.978-51.354-8.343c-26.408-24.455-70.882-24.455-97.29 0-17.593-3.634-35.619-.742-51.355 8.343s-27.255 23.253-32.901 40.302c-17.05 5.647-31.219 17.167-40.303 32.903-9.086 15.737-11.978 33.767-8.344 51.354-24.455 26.412-24.455 70.88 0 97.29-3.634 17.589-.742 35.62 8.343 51.355 9.086 15.736 23.254 27.255 40.302 32.901 5.647 17.049 17.167 31.218 32.903 40.304 15.738 9.085 33.769 11.976 51.354 8.343 13.415 11.941 30.476 18.452 48.646 18.452 18.172 0 35.231-6.511 48.646-18.452 17.589 3.634 35.619.742 51.356-8.343 15.736-9.087 27.255-23.257 32.9-40.303 17.05-5.647 31.219-17.167 40.303-32.902 9.086-15.736 11.978-33.766 8.344-51.354 11.941-13.416 18.452-30.476 18.452-48.646-.001-18.171-6.513-35.232-18.451-48.645 3.631-17.588.739-35.618-8.346-51.355zm-9.611 138.478c-2.683 2.576-3.715 6.427-2.679 9.999 8.84 28.15-9.68 60.223-38.478 66.643-3.611.889-6.431 3.709-7.319 7.32-3.504 14.237-12.425 26.115-25.118 33.445-12.692 7.328-27.44 9.115-41.525 5.031-3.575-1.036-7.424-.003-9.999 2.679-10.155 10.579-23.819 16.405-38.477 16.405-14.655 0-28.32-5.827-38.478-16.406-2.578-2.695-6.47-3.711-9.999-2.679-14.081 4.083-28.827 2.298-41.522-5.031-12.693-7.329-21.614-19.207-25.12-33.447-.889-3.611-3.709-6.431-7.319-7.319-14.239-3.505-26.117-12.426-33.445-25.118-7.328-12.693-9.114-27.44-5.031-41.526 1.035-3.572.004-7.423-2.68-9.998-21.73-19.961-21.729-56.992.002-76.953 2.683-2.576 3.714-6.427 2.679-9.999-4.084-14.083-2.297-28.831 5.031-41.524 7.328-12.692 19.206-21.613 33.446-25.119 3.611-.889 6.431-3.708 7.319-7.32 3.505-14.239 12.426-26.117 25.118-33.445s27.438-9.116 41.526-5.031c3.571 1.035 7.423.003 9.998-2.68 19.957-21.73 56.995-21.728 76.952 0 2.575 2.683 6.425 3.714 9.999 2.68 28.151-8.839 60.225 9.679 66.645 38.478.889 3.611 3.709 6.431 7.319 7.32 14.239 3.504 26.116 12.425 33.445 25.118 7.328 12.693 9.114 27.441 5.031 41.526-1.035 3.572-.004 7.423 2.68 9.999 10.577 10.153 16.403 23.818 16.404 38.476.001 14.655-5.825 28.32-16.405 38.476z"/><path d="m328.643 189.492c-37.355-10.009-50.099-19.415-61.342-27.713-8.556-6.314-16.636-12.279-32.122-17.125-32.52-9.92-63.415 30.406-73.288 60.557-10.2 29.721-4.333 52.748 15.312 60.094 34.517 12.908 59.538 10.979 76.099 9.701 3.005-.231 6.44-.497 9.113-.533.138 2.452.312 4.91.486 7.392 1.018 14.427 2.071 29.344-3.37 49.65-4.488 15.44 5.598 32.909 21.213 36.743 2.591.694 5.193 1.026 7.757 1.026 13.244-.001 25.397-8.852 28.985-22.239 7.999-29.854 18.577-44.227 27.91-56.907 7.928-10.772 15.416-20.948 19.833-37.432 9.21-34.372-15.849-57.658-36.586-63.214zm17.268 58.036c-3.441 12.842-9.258 20.747-16.623 30.753-9.866 13.406-22.146 30.09-31.12 63.585-1.428 5.327-6.922 8.496-12.248 7.072-2.559-.686-4.707-2.345-6.051-4.671-1.343-2.327-1.705-5.017-1.02-7.576 6.31-23.545 5.083-40.913 4.002-56.235-.978-13.854-1.75-24.797 3.242-37.524 2.017-5.142-.517-10.944-5.658-12.961-5.009-2.004-10.948.465-12.961 5.658-2.599 6.626-4.027 12.839-4.739 18.851-3.376-.001-7.018.28-10.972.584-14.805 1.142-37.177 2.867-67.555-8.494-10.053-3.759-8.114-21.133-3.4-34.869 9.045-26.353 32.154-53.046 48.397-47.962 12.283 3.844 18.433 8.383 26.219 14.13 12.043 8.889 27.031 19.951 68.042 30.939 11.84 3.175 28.401 16.491 22.445 38.72z"/><path d="m231.649 323.678c0-5.523-4.478-10-10-10h-.008c-5.522 0-9.996 4.477-9.996 10 .529 13.263 19.48 13.262 20.004 0z"/><path d="m146.049 305.278h-.007c-5.522 0-9.997 4.477-9.997 10 .528 13.263 19.479 13.263 20.004 0 0-5.523-4.478-10-10-10z"/><path d="m236.649 385.678h-.008c-5.522 0-9.996 4.477-9.996 10 .528 13.263 19.479 13.263 20.004 0 0-5.523-4.477-10-10-10z"/><path d="m372.849 309.478h-.008c-5.522 0-9.996 4.477-9.996 10 .528 13.263 19.479 13.263 20.004 0 0-5.523-4.477-10-10-10z"/><path d="m330.249 153.678c13.268-.529 13.258-19.476 0-20h-.008c-13.268.53-13.25 19.478.008 20z"/><path d="m255.848 129.678c13.268-.529 13.258-19.476 0-20h-.007c-13.268.53-13.251 19.478.007 20z"/><path d="m142.848 188.078c0-5.523-4.478-10-10-10h-.007c-5.522 0-9.997 4.477-9.997 10 .529 13.263 19.48 13.262 20.004 0z"/><path d="m82.247 92.019c2.258 0 4.53-.761 6.399-2.319 4.243-3.536 4.816-9.841 1.281-14.084-3.537-4.243-9.843-4.814-14.084-1.28l-.006.005c-4.243 3.536-4.813 9.839-1.278 14.082 1.978 2.372 4.823 3.596 7.688 3.596z"/></g></g></svg>