<?xml version="1.0" encoding="iso-8859-1"?>
<!-- Generator: Adobe Illustrator 19.0.0, SVG Export Plug-In . SVG Version: 6.00 Build 0)  -->
<svg version="1.1" id="Capa_1" xmlns="http://www.w3.org/2000/svg" xmlns:xlink="http://www.w3.org/1999/xlink" x="0px" y="0px"
	 viewBox="0 0 512 512" style="enable-background:new 0 0 512 512;" xml:space="preserve">
<g>
	<path style="fill:#D83D59;" d="M362.529,380.382l-76.679,40.625L265.124,504.5h67.355l69.614-26.584l2.109-80.415
		C393.329,388.027,379.458,382.921,362.529,380.382z"/>
	<path style="fill:#D83D59;" d="M246.858,504.426l-20.708-83.418l-76.679-40.625c-16.929,2.538-30.8,7.645-41.672,17.119
		l2.109,80.415l69.614,26.584h67.435C246.923,504.476,246.891,504.451,246.858,504.426z"/>
</g>
<g>
	<path style="fill:#F3BC9C;" d="M104.2,162.066c-45.855-13.953-60.07,63.778,8.938,84.286l18.982-13.347L104.2,162.066z"/>
	<path style="fill:#F3BC9C;" d="M407.8,162.066c45.855-13.953,60.07,63.778-8.938,84.286l-18.982-13.347L407.8,162.066z"/>
</g>
<path style="fill:#FFD3B7;" d="M373.063,137.164L256.26,124.762l-117.292,12.422l-32.069,90.37l0.3,1.119
	C124.847,294.32,184.778,342.637,256,342.637c71.303,0,131.293-48.428,148.861-114.194l0.24-0.889L373.063,137.164"/>
<path style="fill:#BC3245;" d="M109.665,468.668c3.486-35.766,12.82-57.815,28.134-71.167c6.089-5.306,13.121-9.241,21.102-12.123
	l-9.429-4.996c-5.29,0.793-10.282,1.837-14.977,3.187c-6.573,1.89-12.564,4.378-17.978,7.617c-3.094,1.851-5.999,3.946-8.718,6.315
	L109.665,468.668z"/>
<path style="fill:#F0C146;" d="M179.521,504.5H78.098c0-57.682,9.813-89.66,29.7-106.999c4.937,10.503,10.903,22.155,17.988,34.387
	C141.626,459.26,159.694,483.624,179.521,504.5z"/>
<path style="fill:#D4AA3D;" d="M108.098,504.5c0-37.079,4.062-63.523,12.241-82.299c-4.754-8.699-8.926-17.009-12.541-24.7l0,0
	c-8.079,7.043-14.496,16.503-19.267,29.122c-1.101,2.912-2.115,5.992-3.041,9.249c-4.939,17.372-7.393,39.787-7.393,68.628
	L108.098,504.5L108.098,504.5z"/>
<path style="fill:#272933;" d="M362.529,380.382c-17.448,36.606-48.638,88.281-97.405,124.118h-18.168
	c-37.955-27.951-64.797-65.187-81.676-94.147c-6.176-10.593-11.422-20.756-15.809-29.97c10.833-1.629,22.915-26.888,36.266-26.888
	h140.527C339.615,353.495,351.697,378.753,362.529,380.382z"/>
<path style="fill:#F0C146;" d="M433.902,504.5H332.479c19.827-20.876,37.895-45.24,53.734-72.612
	c7.085-12.232,13.051-23.884,17.988-34.387C424.089,414.84,433.902,446.818,433.902,504.5z"/>
<path style="fill:#BBBBBB;" d="M171.871,357.074c0,0,17.207,61.68,84.13,120.842c66.923-59.162,84.13-120.842,84.13-120.842
	L256,268.96L171.871,357.074z"/>
<path style="fill:#A6A6A6;" d="M196.87,336.406l10.874-16.903l-35.873,37.572c0,0,16.879,60.474,82.18,119.098
	C209.294,402.462,196.87,336.406,196.87,336.406z"/>
<path style="fill:#E7E7E7;" d="M386.709,381.067C304.36,317.234,337.669,254.009,256,254.009s-48.359,63.225-130.709,127.058
	c-3.19,2.473-0.443,7.012,3.715,6.136c34.09-7.186,112.138-31.035,126.994-100.466c14.856,69.431,92.904,93.28,126.994,100.466
	C387.153,388.079,389.899,383.539,386.709,381.067z"/>
<path style="fill:#F0C146;" d="M256,34.482c-54.384,0-103.581,30.5-131.083,74.81l131.338,15.475l131.338-15.475
	C360.341,64.722,311.154,34.482,256,34.482z"/>
<path style="fill:#D4AA3D;" d="M164.917,109.292c24.114-38.852,64.908-67.081,111.251-73.448
	c-6.612-0.896-13.344-1.362-20.168-1.362c-54.384,0-103.581,30.5-131.083,74.81l131.338,15.475l20-2.356L164.917,109.292z"/>
<circle style="fill:#D83D59;" cx="256" cy="74.63" r="15.2"/>
<g>
	<path style="fill:#E7E7E7;" d="M142.795,140.242c0,0-10.603,87.312-35.896,87.312c-3.248-12.452-4.977-25.523-4.977-38.994
		c0-8.594,0.77-17.059,2.239-25.333l0.2-1.159c1.379-7.455,3.318-14.74,5.776-21.825l28.831-3.058L142.795,140.242z"/>
	<path style="fill:#E7E7E7;" d="M410.078,188.56c0,13.471-1.729,26.542-4.977,38.994c-25.293,0-35.896-87.312-35.896-87.312
		l3.857-3.078l29.031,3.078c1.049,3.088,1.999,6.206,2.848,9.374c1.099,4.087,2.009,8.245,2.768,12.452l0.09,0.53
		C409.288,171.051,410.078,179.726,410.078,188.56z"/>
</g>
<rect x="142.79" y="7.5" style="fill:#272933;" width="226.42" height="29.98"/>
<path style="fill:#D83D59;" d="M402.093,140.242H110.137c3.768-10.863,8.754-21.236,14.78-30.949h262.676
	C393.519,118.986,398.416,129.359,402.093,140.242z"/>
<path style="fill:#BC3245;" d="M124.917,109.292c-6.026,9.714-11.013,20.087-14.78,30.95h40c3.768-10.863,8.754-21.236,14.78-30.95
	C164.917,109.292,124.917,109.292,124.917,109.292z"/>
<path d="M155.815,167.456c-3.999,1.05-6.385,5.136-5.345,9.138s5.131,6.405,9.136,5.376c0.363-0.094,36.641-9.072,61.34,14.745
	c1.456,1.403,3.332,2.101,5.205,2.101c1.965,0,3.928-0.768,5.4-2.294c2.875-2.981,2.789-7.729-0.193-10.604
	C200.501,156.161,157.624,166.98,155.815,167.456z"/>
<path d="M215.026,231.622c-23.089,13.284-50.003,6.64-50.421,6.533c-4.003-1.042-8.093,1.353-9.143,5.354
	c-1.052,4.006,1.344,8.107,5.35,9.159c0.669,0.176,8.95,2.28,20.64,2.28c11.679,0,26.761-2.101,41.055-10.324
	c3.59-2.065,4.826-6.65,2.761-10.241C223.201,230.793,218.617,229.557,215.026,231.622z"/>
<path d="M225.887,211.709c-0.997-0.8-24.851-19.524-63.439-12.683c-4.079,0.723-6.799,4.615-6.076,8.693
	c0.723,4.079,4.615,6.8,8.694,6.076c13.244-2.348,25.902-1.455,37.625,2.651c8.714,3.053,13.672,6.856,13.833,6.98
	c1.379,1.097,3.026,1.63,4.663,1.63c2.195,0,4.371-0.959,5.853-2.804C229.633,219.024,229.117,214.303,225.887,211.709z"/>
<path d="M356.189,167.456c-1.81-0.475-44.686-11.294-75.542,18.461c-2.981,2.875-3.068,7.623-0.193,10.604
	c1.472,1.526,3.435,2.294,5.4,2.294c1.874,0,3.75-0.698,5.205-2.101c24.645-23.765,60.817-14.877,61.337-14.746
	c4.001,1.043,8.093-1.353,9.144-5.354C362.591,172.608,360.196,168.508,356.189,167.456z"/>
<path d="M347.384,238.159c-0.268,0.07-27.081,6.882-50.406-6.537c-3.591-2.065-8.175-0.83-10.241,2.761
	c-2.065,3.591-0.83,8.176,2.761,10.241c14.296,8.225,29.375,10.324,41.055,10.324c11.688,0,19.971-2.104,20.64-2.28
	c4.006-1.052,6.402-5.152,5.35-9.159S351.389,237.105,347.384,238.159z"/>
<path d="M295.509,223.405c0.191-0.154,19.467-15.275,51.429-9.609c4.081,0.725,7.971-1.997,8.694-6.076
	c0.723-4.078-1.997-7.971-6.076-8.693c-38.584-6.841-62.443,11.883-63.439,12.683c-3.229,2.594-3.745,7.314-1.151,10.544
	c1.481,1.845,3.657,2.804,5.853,2.804C292.465,225.058,294.124,224.517,295.509,223.405z"/>
<path d="M256.002,51.927c-12.517,0-22.7,10.183-22.7,22.701c0,12.517,10.183,22.7,22.7,22.7s22.701-10.184,22.701-22.7
	C278.702,62.11,268.519,51.927,256.002,51.927z M256.002,82.328c-4.246,0-7.7-3.454-7.7-7.7s3.454-7.701,7.7-7.701
	s7.701,3.455,7.701,7.701S260.248,82.328,256.002,82.328z"/>
<path d="M433.924,512c4.142,0,7.5-3.358,7.5-7.5c0-0.188-0.007-0.373-0.021-0.557c-0.063-58.114-10.023-92.699-32.273-112.097
	c-4.098-3.57-8.588-6.601-13.585-9.192c-0.286-2.88-1.757-5.591-4.239-7.515c-12.65-9.806-27.813-21.56-46.008-51.897
	c26.453-17.528,46.868-42.037,59.19-70.804c17.011-5.723,30.515-15.332,39.201-27.938c8.194-11.892,11.65-25.704,9.731-38.89
	c-2.847-19.564-16.938-32.709-35.066-32.709c-1.578,0-3.182,0.101-4.804,0.297c-1.209-5.299-2.398-10.878-4.532-15.894
	c-3.784-11.065-8.836-21.801-15.024-31.924c-15.853-25.928-38.416-46.749-64.726-60.4h39.944c4.142,0,7.5-3.358,7.5-7.5V7.5
	c0-4.142-3.358-7.5-7.5-7.5H216.565c-4.142,0-7.5,3.358-7.5,7.5s3.358,7.5,7.5,7.5h145.146v14.98H150.293V15h36.704
	c4.142,0,7.5-3.358,7.5-7.5s-3.358-7.5-7.5-7.5h-44.204c-4.142,0-7.5,3.358-7.5,7.5v29.98c0,4.142,3.358,7.5,7.5,7.5h40.689
	c-26.228,13.651-48.86,34.457-64.937,60.358c-6.38,10.285-11.593,21.201-15.494,32.449c-1.751,5.049-3.227,10.208-4.461,15.429
	c-1.668-0.207-3.318-0.315-4.94-0.315c-18.13,0-32.224,13.145-35.07,32.71c-1.918,13.186,1.538,26.998,9.733,38.89
	c8.687,12.605,22.194,22.216,39.208,27.938c12.361,28.848,32.852,53.408,59.395,70.939c-9.715,16.279-23.355,34.039-46.217,51.761
	c-2.482,1.924-3.954,4.635-4.24,7.515c-4.997,2.591-9.487,5.622-13.587,9.194C80.553,411.307,70.6,446.05,70.6,504.5
	c0,4.142,3.358,7.5,7.5,7.5H433.924z M397.562,213.945c-6.827-9.161-9.724-21.029-12.61-31.848
	c-3.014-11.299-5.285-22.805-7.092-34.356h18.757c0.381,1.274,0.743,2.55,1.083,3.822c2.695,10.055,4.285,20.428,4.743,30.827
	c0.49,11.136-0.321,22.339-2.377,33.293c-0.063,0.339-0.12,0.679-0.185,1.018c-0.003,0.018-0.008,0.036-0.011,0.053
	c-0.052-0.057-0.103-0.108-0.157-0.167C398.951,215.745,398.239,214.855,397.562,213.945z M130.949,165.438
	c-3.062,14.655-6.303,29.567-13.284,42.941c-1.454,2.785-3.123,5.666-5.255,8.075c-0.043,0.049-0.086,0.096-0.128,0.144
	c-0.049,0.055-0.097,0.103-0.145,0.156c-0.008-0.04-0.018-0.08-0.025-0.12c-0.032-0.165-0.059-0.331-0.09-0.497
	c-4.31-22.655-3.19-46.326,3.56-68.396h18.564c-0.723,4.614-1.777,10.779-3.175,17.598
	C130.963,165.373,130.956,165.405,130.949,165.438z M121.097,132.742c2.351-5.444,5.046-10.776,8.062-15.95h254.162
	c2.965,5.171,5.609,10.503,7.91,15.95H121.097z M418.354,167.901c8.378,0,18.091,5.219,20.222,19.869
	c2.917,20.055-10.381,36.023-27.203,45.272c0.341-1.194,0.687-2.391,0.988-3.596c3.463-13.278,5.219-27.035,5.219-40.887
	c0-6.879-0.544-13.708-1.356-20.533c-0.001-0.01-0.002-0.02-0.003-0.03C416.944,167.933,417.655,167.901,418.354,167.901z
	 M227.406,44.98h57.664c35.192,7.324,66.738,27.726,88.409,56.812H139.137C161.026,72.731,192.521,52.331,227.406,44.98z
	 M100.63,233.042c-16.822-9.25-30.123-25.219-27.206-45.271c2.131-14.65,11.846-19.87,20.227-19.87c0.711,0,1.437,0.033,2.174,0.099
	c-0.01,0.069-0.015,0.138-0.025,0.207c-2.75,20.391-1.344,41.35,3.847,61.249c0.003,0.012,0.006,0.024,0.009,0.039
	C99.974,230.679,100.292,231.863,100.63,233.042z M85.657,497c0.655-42.28,6.987-69.722,20.115-86.487
	c9.807,19.654,20.996,38.649,33.633,56.621c7.178,10.208,14.831,20.1,22.969,29.561c0.086,0.1,0.17,0.205,0.256,0.305H85.657z
	 M182.78,497c-0.314-0.337-0.629-0.671-0.941-1.01c-17.777-19.234-33.29-40.52-46.702-62.999
	c-6.112-10.244-11.779-20.751-17.054-31.449c-0.304-0.618-0.598-1.241-0.899-1.861c2.709-1.886,5.641-3.552,8.846-5.025
	c0.013,0.002,0.026,0.002,0.039,0.004c1.483,0.236,3.029,0.188,4.498-0.122c4.366-0.921,8.707-1.959,13.021-3.097
	c0.276-0.073,2.576-0.749,2.601-0.693c4.012,8.038,8.242,15.88,12.615,23.38c13.809,23.693,35.961,55.747,66.898,82.871L182.78,497
	L182.78,497z M324.806,375.586c-10.027,21.62-30.575,57.047-68.804,92.23c-38.229-35.183-58.776-70.61-68.803-92.23
	c11.813-5.686,23.113-12.515,33.369-20.7c14.461-11.502,27.167-26,35.435-44.239c8.207,18.104,21.531,33.54,37.201,45.623
	C302.459,363.445,313.009,369.908,324.806,375.586z M173.448,381.586c10.981,23.75,34.015,63.429,77.586,101.949
	c1.419,1.254,3.193,1.881,4.968,1.881c1.774,0,3.549-0.627,4.967-1.881c43.572-38.52,66.606-78.199,77.587-101.949
	c4.336,1.74,8.592,3.299,12.707,4.692c-17.429,34.347-46.093,78.76-88.645,110.722H249.46
	c-36.739-27.665-62.487-64.324-77.699-90.426c-3.805-6.525-7.495-13.327-11.025-20.294
	C164.853,384.886,169.11,383.327,173.448,381.586z M365.812,390.748c2.354,0.646,4.719,1.259,7.09,1.838
	c2.75,0.671,5.662,1.346,8.492,1.943c0.019,0.004,0.038,0.008,0.057,0.012c1.477,0.303,3,0.356,4.49,0.119
	c0.011-0.002,0.023-0.002,0.035-0.004c3.205,1.473,6.137,3.139,8.846,5.025c-0.305,0.627-0.602,1.257-0.91,1.883
	c-11.231,22.817-24.337,44.737-39.516,65.154c-7.607,10.232-15.732,20.077-24.385,29.441c-0.261,0.282-0.524,0.559-0.785,0.84
	h-42.801C324.053,464.081,349.771,422.839,365.812,390.748z M426.347,497h-76.973c0.091-0.106,0.18-0.217,0.271-0.323
	c20.706-24.028,38.204-50.758,52.855-78.863c1.263-2.422,2.511-4.854,3.732-7.302C419.36,427.278,425.693,454.72,426.347,497z
	 M369.057,376.078c-0.285-0.079-0.575-0.162-0.863-0.243c-1.101-0.31-2.199-0.628-3.295-0.953
	c-34.306-10.172-84.45-33.021-99.43-81.545c-0.83-2.689-1.545-5.418-2.134-8.17c-0.74-3.459-3.797-5.931-7.334-5.931
	c-3.316,0-6.21,2.172-7.168,5.294c-0.886,2.887-1.401,5.893-2.294,8.789c-14.978,48.551-65.156,71.403-99.467,81.572
	c-1.081,0.32-2.165,0.634-3.252,0.94c-0.292,0.082-0.585,0.166-0.874,0.246c28.15-25.433,40.314-50.114,50.334-70.445
	c14.021-28.452,21.746-44.124,62.721-44.124c40.976,0,48.7,15.672,62.721,44.124C328.743,325.964,340.907,350.646,369.057,376.078z
	 M337.902,310.145c-1.839-3.439-3.705-7.056-5.602-10.9c-0.039-0.079-0.08-0.161-0.119-0.24
	c-14.455-29.33-25.873-52.497-76.179-52.497s-61.724,23.167-76.179,52.497c-1.791,3.633-3.586,7.264-5.442,10.865
	c-0.059,0.114-0.12,0.23-0.179,0.344c-24.439-16.421-43.119-39.458-54.041-66.447c-0.028-0.076-0.044-0.154-0.074-0.23
	c-1.448-3.578-2.744-7.234-3.905-10.915c0.33-0.183,0.658-0.376,0.984-0.58c5.941-3.663,9.992-9.731,13.226-15.768
	c9.006-16.815,13.117-36.037,16.595-54.64c0.849-4.541,1.62-9.097,2.307-13.665c0.011-0.073,0.024-0.155,0.035-0.227h213.349
	c0.003,0.018,0.006,0.038,0.009,0.057c3.791,24.019,7.84,49.419,20.206,70.775c2.971,5.131,6.678,10.107,11.744,13.336
	c0.39,0.248,0.782,0.488,1.186,0.711c-1.161,3.687-2.455,7.342-3.902,10.916c-0.028,0.068-0.042,0.139-0.067,0.207
	C380.948,270.708,362.305,293.721,337.902,310.145z"/>
<g>
</g>
<g>
</g>
<g>
</g>
<g>
</g>
<g>
</g>
<g>
</g>
<g>
</g>
<g>
</g>
<g>
</g>
<g>
</g>
<g>
</g>
<g>
</g>
<g>
</g>
<g>
</g>
<g>
</g>
</svg>
