<svg height="512" viewBox="0 0 61 60" width="512" xmlns="http://www.w3.org/2000/svg"><g id="050---Samosas" fill="none"><g id="Icons" transform="translate(0 1)"><path id="Shape" d="m59 11c0 5.46-6.15 10-14.22 10.83l-2.24-3.83c5.94-.13 10.86-2.4 12.14-5.42.2127897-.4994917.3216671-1.0370741.32-1.58 0-3.87-5.82-7-13-7s-13 3.13-13 7c.0010309.5361918.1098539 1.0667036.32 1.56.7 1.65 2.49 3.08 4.94 4.06l-2 3.37c-4.18-1.88-7-4.94-7.26-8.43 0-.08 0-.16 0-.22 0-.24 0-.36 0-.36 0-6.06 7.61-10.98 17-10.98s17 4.92 17 11z" fill="#ff9801"/><path id="Shape" d="m55 25c-1.5889275 1.8857241-3.6639972 3.3002299-6 4.09l-4.27-7.28c8.12-.81 14.27-5.37 14.27-10.81 0 0 1 8-4 14z" fill="#a0522d"/><path id="Shape" d="m59 11c-.1096725 2.6197638-1.3818652 5.0541615-3.47 6.64-.5796858 2.6974173-1.789293 5.2194312-3.53 7.36-1.0077282 1.2065459-2.2236344 2.2226235-3.59 3l.64 1.08c2.3167343-.7950511 4.3735167-2.2054162 5.95-4.08 5-6 4-14 4-14z" fill="#783e22"/><path id="Shape" d="m32.28 20-2.65 4.54c-2.7559958-3.7992385-4.3567353-8.3132545-4.61-13 .28 3.51 3.08 6.57 7.26 8.46z" fill="#a0522d"/><path id="Shape" d="m36 58h-32.08c-1.0847575-.0449739-2.064466-.6613646-2.57452447-1.619781-.51005847-.9584163-.47408817-2.11534.09452447-3.040219l18.08-30.88c.4908481-.9252659 1.452599-1.5037647 2.5-1.5037647s2.0091519.5784988 2.5 1.5037647l1.43 2.44c-.22 5.61.17 22.4 10.05 33.1z" fill="#ffdc00"/><path id="Shape" d="m40.08 58h-4.08c-9.88-10.7-10.27-27.49-10.09-33.1l1.75 3 12.94 22.1 2 3.34c.5716358.9308943.6036653 2.0959238.0840393 3.0568195s-1.5120898 1.5719075-2.6040393 1.6031805z" fill="#ff9801"/><path id="Shape" d="m42.56 53.34-1.96-3.34-12.94-22.11-1.75-3c0 1.25-.05 3.06.06 5.24l11.63 19.87 2 3.34c.5716358.9308943.6036653 2.0959238.0840393 3.0568195s-1.5120898 1.5719075-2.6040393 1.6031805h3c1.0847575-.0449739 2.064466-.6613646 2.5745245-1.619781.5100584-.9584163.4740881-2.11534-.0945245-3.040219z" fill="#f57c00"/><path id="Shape" d="m52 50h-11.4l-12.94-22.11 2-3.36 2.62-4.53 2-3.37 1.26-2.16c.4908481-.9252659 1.452599-1.5037647 2.5-1.5037647s2.0091519.5784988 2.5 1.5037647l1.43 2.44c-.24 5.6.15 22.39 10.03 33.09z" fill="#fec108"/><path id="Shape" d="m55 11c-.0010309.5361918-.1098539 1.0667036-.32 1.56-1.91-2.66-6.87-4.56-12.68-4.56s-10.77 1.9-12.68 4.56c-.2101461-.4932964-.3189691-1.0238082-.32-1.56 0-3.87 5.82-7 13-7s13 3.13 13 7z" fill="#783e22"/><path id="Shape" d="m54.68 12.56c-1.28 3-6.2 5.29-12.14 5.42l-.63-1.08-1.43-2.44c-.4908481-.9252659-1.452599-1.5037647-2.5-1.5037647s-2.0091519.5784988-2.5 1.5037647l-1.26 2.16c-2.45-1-4.24-2.41-4.94-4.06 1.95-2.66 6.91-4.56 12.72-4.56s10.77 1.9 12.68 4.56z" fill="#f44335"/><path id="Shape" d="m42 8c-.51 0-1 0-1.5.05 5.15.29 9.44 2.08 11.18 4.51-1.07 2.52-4.67 4.51-9.28 5.18l.14.24c5.94-.13 10.86-2.4 12.14-5.42-1.91-2.66-6.87-4.56-12.68-4.56z" fill="#c81e1e"/><path id="Shape" d="m56.08 50h-4.08c-9.88-10.7-10.27-27.49-10.09-33.1l.63 1.1 2.24 3.83 4.27 7.28 9.51 16.25c.5584959.9237945.5889241 2.073514.0800737 3.0255566-.5088504.9520427-1.4816851 1.5655354-2.5600737 1.6144434z" fill="#ff9801"/><path id="Shape" d="m58.56 45.34-9.51-16.25-4.27-7.28-2.24-3.81-.63-1.08c0 1.25 0 3.07.07 5.24l4.07 7 9.51 16.25c.5337502.9208005.5507083 2.0527974.0447799 2.989173-.5059285.9363756-1.4620601 1.5426072-2.5247799 1.600827h3c1.0847575-.0449739 2.064466-.6613646 2.5745245-1.619781.5100584-.9584163.4740881-2.11534-.0945245-3.040219z" fill="#f57c00"/></g><path id="Shape" d="m51.48 30.56c2.0440524-.877731 3.8553244-2.2199212 5.29-3.92 5.23-6.26 4.23-14.44 4.23-14.79-.12-6.54-8.14-11.85-18-11.85s-18 5.37-18 12v.66c.2422721 4.6572462 1.7685959 9.1566132 4.41 13l-.77 1.32-2.32-4c-.682057-1.2023195-1.9576926-1.9452705-3.34-1.9452705s-2.657943.742951-3.34 1.9452705l-18.07 30.85c-.74580319 1.2363721-.78071969 2.7753361-.09175745 4.0442605.68896223 1.2689245 1.9986555 2.0778329 3.44175745 2.1257395h36.16c1.4431019-.0479066 2.7527952-.856815 3.4417575-2.1257395.6889622-1.2689244.6540457-2.8078884-.0917575-4.0442605l-1.08-1.83h13.73c1.4440525-.0453456 2.7552172-.8546731 3.4430024-2.1252224.6877852-1.2705492.6485598-2.8108821-.1030024-4.0447776zm-1-1.73-3.08-5.23c4.89-.8 8.89-2.89 11.25-5.68-.99 4.92-3.6 8.98-8.18 10.91zm-14.82-13.83-.82 1.39c-1.3416853-.5546049-2.4970142-1.4809497-3.33-2.67 4.43-4.89 18.54-4.9 23 0-1.44 2.28-5.61 4.01-10.41 4.28l-1.76-3c-.6735187-1.213442-1.9521711-1.9661392-3.34-1.9661392s-2.6664813.7526972-3.34 1.9661392zm-4.59-3.59c.65-3.01 5.85-5.41 11.93-5.41s11.28 2.4 11.93 5.37c-5.7-4.49-18.16-4.5-23.86 0zm11.93-9.41c8.82 0 16 4.48 16 10 0 4.67-5.41 8.79-12.69 9.75l-1.08-1.85c5.57-.49 10-2.77 11.37-5.93.268045-.6219665.4042439-1.2927464.4-1.97 0-4.49-6.15-8-14-8-13.38 0-18.68 9.42-9.17 14.08l-.94 1.6c-3.17-1.62-5.84-4.12-5.89-7.68-.08-5.52 7.18-10 16-10zm-14.72 16.92c1.07552.9950645 2.2836625 1.8363894 3.59 2.5l-1.32 2.26c-.9536757-1.4849779-1.7163545-3.0842515-2.27-4.76zm-24.98 35.92 18.08-30.84c.3254438-.5901499.9460634-.9566356 1.62-.9566356s1.2945562.3664857 1.62.9566356l1.28 2.2c-.13 5.18.25 20.92 8.94 31.84h-29.92c-.73893215-.0401709-1.40021235-.4717551-1.73445788-1.1319932-.33424554-.6602381-.29060728-1.4486873.11445788-2.0680068zm37.78 3.16h-3.63c-7.76-8.67-9.31-21.41-9.53-28.41l14.78 25.25c.3910093.6163926.4266234 1.3936816.0936182 2.0432473s-.9848972 1.074399-1.7136182 1.1167527zm-11.26-29.11c3.08-5.27 5.76-9.84 7.56-12.93.3209416-.5959251.9431469-.9675322 1.62-.9675322s1.2990584.3716071 1.62.9675322l1.28 2.2c-.13 5.19.26 20.92 8.94 31.84h-8.66zm27.26 21.11h-3.63c-7.76-8.67-9.31-21.41-9.53-28.4 8.28 14.14 7.61 13 14.78 25.25.3859384.6159033.4187452 1.3896065.0863298 2.0359696-.3324153.6463632-.9808497 1.0697137-1.7063298 1.1140304z" fill="#000" transform="translate(-1)"/></g></svg>