<?xml version="1.0" encoding="iso-8859-1"?>
<!-- Generator: Adobe Illustrator 22.1.0, SVG Export Plug-In . SVG Version: 6.00 Build 0)  -->
<svg xmlns="http://www.w3.org/2000/svg" xmlns:xlink="http://www.w3.org/1999/xlink" version="1.1" id="Layer_1_1_" x="0px" y="0px" viewBox="0 0 64 64" style="enable-background:new 0 0 64 64;" xml:space="preserve" width="512" height="512">
<g>
	<g>
		<path style="fill:#838F9B;" d="M62,30v14c0,1.1-0.9,2-2,2h-4.68c1.09-2.79,1.68-5.83,1.68-9s-0.59-6.21-1.67-9H60    C61.1,28,62,28.9,62,30z"/>
		<path style="fill:#838F9B;" d="M8.68,46H4c-1.1,0-2-0.9-2-2V30c0-1.1,0.9-2,2-2h4.67C7.59,30.79,7,33.83,7,37S7.59,43.21,8.68,46z    "/>
		<path style="fill:#CCD1D9;" d="M32,12c13.81,0,25,11.191,25,25S45.81,62,32,62S7,50.81,7,37c0-9.298,5.071-17.405,12.607-21.714    c3.631-2.083,7.833-3.274,12.322-3.286C31.952,12,31.976,12,32,12z"/>
		<path style="fill:#FCD770;" d="M32,16c11.6,0,21,9.4,21,21s-9.4,21-21,21s-21-9.4-21-21c0-7.81,4.26-14.62,10.59-18.24    c3.05-1.75,6.58-2.75,10.35-2.76C31.96,16,31.98,16,32,16z"/>
		<circle style="fill:#FC6E51;" cx="47" cy="34" r="2"/>
		<circle style="fill:#FC6E51;" cx="22" cy="48" r="2"/>
		<path style="fill:#B4DD7F;" d="M21,33v2c0,3.31-2.69,6-6,6v-2C15,35.69,17.69,33,21,33z"/>
		<path style="fill:#B4DD7F;" d="M29,30h-2c-3.31,0-6-2.69-6-6h2C26.31,24,29,26.69,29,30z"/>
		<polygon style="fill:#FF826E;" points="46,40 46,42 41.79,45.68 39.79,42.68 44,40   "/>
		<path style="fill:#FF826E;" d="M37.31,43.49L37,44c-0.66,1.32-1,2.77-1,4.24v0.69C35.67,48.98,35.34,49,35,49    c-3.36,0-6.23-2.07-7.42-5c2.7-0.01,5.36-0.59,7.81-1.72C35.79,42.94,36.49,43.4,37.31,43.49z"/>
		<path style="fill:#FF826E;" d="M35,40c-2.63,0-5.22-0.61-7.58-1.79c0.46-1.39,1.3-2.65,2.46-3.61l1.03-0.86L31,34l0.21,0.42    c1.05,2.1,3.15,3.46,5.48,3.57l-1.09,1.3c-0.18,0.21-0.32,0.45-0.42,0.71H35z"/>
		<path style="fill:#FF826E;" d="M41.79,45.68l-1.53,1.34c-1.21,1.06-2.69,1.72-4.26,1.91v-0.69c0-1.47,0.34-2.92,1-4.24l0.31-0.51    c0.08,0.01,0.17,0.01,0.26,0.01h0.18c0.49,0,0.97-0.14,1.38-0.4l0.66-0.42L41.79,45.68z"/>
		<path style="fill:#FF826E;" d="M27.42,38.21C29.78,39.39,32.37,40,35,40h0.18C35.06,40.29,35,40.61,35,40.93    c0,0.5,0.14,0.96,0.39,1.35c-2.45,1.13-5.11,1.71-7.81,1.72C27.21,43.07,27,42.06,27,41v-0.25c0-0.87,0.14-1.73,0.41-2.54H27.42z"/>
		<path style="fill:#FC6E51;" d="M45,28l-8.31,9.99c-2.33-0.11-4.43-1.47-5.48-3.57L31,34l-0.09-0.26l3.48-2.9    C37.37,28.36,41.12,27,45,27V28z"/>
	</g>
	<g>
		<path d="M60,27h-3.998c-2.734-6.566-8.112-11.855-15.05-14.399c-0.155-0.942-0.587-1.813-1.276-2.502L36.777,7.2    c-0.492-0.492-0.763-1.147-0.763-1.843s0.271-1.351,0.763-1.843l0.938-0.938l-1.414-1.414L35.363,2.1    c-0.87,0.87-1.349,2.027-1.349,3.257s0.479,2.388,1.349,3.257l2.899,2.899c0.485,0.485,0.764,1.157,0.764,1.879    c0,0.686-0.278,1.358-0.764,1.843l1.414,1.414c0.551-0.551,0.924-1.225,1.14-1.961C49.94,18.292,56,27.103,56,37    c0,13.233-10.767,24-24,24S8,50.233,8,37c0-9.63,5.723-18.297,14.58-22.081l-0.786-1.839C15.417,15.805,10.554,20.873,8,27.024V27    H4c-1.654,0-3,1.346-3,3v14c0,1.654,1.346,3,3,3h4.003C11.929,56.387,21.206,63,32,63s20.071-6.613,23.997-16H60    c1.654,0,3-1.346,3-3V30C63,28.346,61.654,27,60,27z M4,45c-0.551,0-1-0.448-1-1V30c0-0.551,0.449-1,1-1h3.269    C6.448,31.542,6,34.232,6,37c0,2.791,0.447,5.478,1.265,8H4z M61,44c0,0.552-0.449,1-1,1h-3.265C57.553,42.478,58,39.791,58,37    c0-2.77-0.439-5.462-1.259-8H60c0.551,0,1,0.449,1,1V44z"/>
		<rect x="37" y="31" width="2" height="2"/>
		<path d="M23,23h-3v1c0,3.86,3.14,7,7,7h3v-1C30,26.14,26.86,23,23,23z M27,29c-2.415,0-4.435-1.721-4.899-4H23    c2.415,0,4.435,1.721,4.899,4H27z"/>
		<path d="M14,42h1c3.86,0,7-3.141,7-7v-3h-1c-3.86,0-7,3.141-7,7V42z M16,39c0-2.415,1.721-4.435,4-4.899V35    c0,2.415-1.721,4.435-4,4.899V39z"/>
		<path d="M22,51c1.654,0,3-1.346,3-3s-1.346-3-3-3s-3,1.346-3,3S20.346,51,22,51z M22,47c0.551,0,1,0.448,1,1s-0.449,1-1,1    s-1-0.448-1-1S21.449,47,22,47z"/>
		<path d="M44,34c0,1.654,1.346,3,3,3s3-1.346,3-3s-1.346-3-3-3S44,32.346,44,34z M47,33c0.551,0,1,0.448,1,1s-0.449,1-1,1    s-1-0.448-1-1S46.449,33,47,33z"/>
		<rect x="29" y="52" width="2" height="2"/>
		<rect x="24" y="34" width="2" height="2"/>
		<rect x="29" y="21" width="2" height="2"/>
		<rect x="39" y="23" width="2" height="2"/>
		<rect x="16" y="29" width="2" height="2"/>
		<rect x="41" y="50" width="2" height="2"/>
		<path d="M24.26,11.65c0.493,0.493,0.764,1.147,0.764,1.88c0,0.696-0.271,1.351-0.763,1.843c-1.015,1.015-2.254,1.967-3.787,2.913    C13.916,22.328,10,29.324,10,37c0,6.104,2.442,11.779,6.876,15.978c4.129,3.91,9.454,6.023,15.109,6.022    c0.415,0,0.831-0.011,1.249-0.034c11.467-0.627,20.587-10.125,20.764-21.622c0.131-8.576-4.802-16.503-12.568-20.198l-0.859,1.806    c7.061,3.36,11.546,10.567,11.427,18.361c-0.16,10.452-8.45,19.087-18.873,19.657c-5.568,0.298-10.845-1.631-14.873-5.444    C14.22,47.708,12,42.55,12,37c0-6.977,3.56-13.336,9.523-17.012c1.667-1.027,3.025-2.075,4.151-3.201    c0.87-0.87,1.349-2.027,1.349-3.293c0-1.23-0.479-2.387-1.349-3.258l-2.899-2.899c-0.492-0.492-0.763-1.147-0.763-1.843    s0.271-1.351,0.763-1.844l0.938-0.938l-1.414-1.414l-0.938,0.938c-0.87,0.871-1.349,2.027-1.349,3.258s0.479,2.388,1.349,3.257    L24.26,11.65z"/>
		<path d="M31.236,11.514C31.729,12.006,32,12.661,32,13.393c0,0.696-0.271,1.351-0.764,1.843l1.414,1.415    c0.87-0.87,1.35-2.027,1.35-3.294c0-1.231-0.479-2.388-1.35-3.257L29.751,7.2c-0.485-0.485-0.764-1.157-0.764-1.843    s0.278-1.358,0.764-1.843l0.938-0.938l-1.415-1.414L28.337,2.1c-0.87,0.87-1.35,2.027-1.35,3.257s0.479,2.387,1.35,3.257    L31.236,11.514z"/>
		<rect x="35" y="18" width="2" height="2"/>
		<path d="M31.025,26.025l1.415,1.414c0.565-0.566,1.554-0.566,2.121,0c0.485,0.485,0.581,1.235,0.231,1.824l0.012,0.007    c-0.359,0.256-0.713,0.519-1.054,0.802l-4.514,3.761C27.18,35.549,26,38.068,26,40.745v0.259C26,45.965,30.036,50,34.996,50    c2.18,0,4.283-0.791,5.924-2.226L47,42.454V39h-3.291l-5.114,3.255c-0.253,0.16-0.544,0.245-0.844,0.245H37.57    c-0.866,0-1.57-0.704-1.57-1.569c0-0.366,0.129-0.724,0.364-1.005L46,28.362V26h-1c-2.814,0-5.57,0.695-8.046,1.97    c-0.11-0.717-0.437-1.403-0.979-1.945C34.653,24.703,32.347,24.703,31.025,26.025z M30.517,35.371l0.064-0.053    c0.961,1.632,2.465,2.814,4.23,3.351c-0.08,0.097-0.145,0.203-0.214,0.308c-2.022-0.052-4.026-0.501-5.885-1.298    C29.14,36.802,29.747,36.013,30.517,35.371z M28,41.004v-0.259c0-0.383,0.041-0.759,0.102-1.13    c1.872,0.778,3.878,1.241,5.902,1.355c0.003,0.266,0.039,0.523,0.098,0.773c-1.852,0.728-3.825,1.149-5.814,1.234    C28.103,42.351,28,41.69,28,41.004z M29.202,44.92c2.023-0.172,4.02-0.653,5.899-1.422c0.233,0.224,0.501,0.407,0.787,0.561    c-0.54,1.242-0.843,2.586-0.874,3.94c-0.006,0-0.012,0.001-0.018,0.001C32.588,48,30.461,46.777,29.202,44.92z M44.291,41H45    v0.546l-3.011,2.635l-0.803-1.204L44.291,41z M39.49,44.039l0.98,1.47l-0.869,0.76c-0.751,0.658-1.63,1.136-2.57,1.422    c0.072-1.109,0.353-2.204,0.844-3.2C38.444,44.471,38.994,44.316,39.49,44.039z M36.242,36.947    c-1.756-0.241-3.283-1.316-4.108-2.924l2.897-2.414c2.446-2.038,5.465-3.274,8.618-3.55L36.242,36.947z"/>
	</g>
</g>
</svg>
